<?xml version="1.0" standalone="no"?>
<!DOCTYPE svg PUBLIC "-//W3C//DTD SVG 20010904//EN"
 "http://www.w3.org/TR/2001/REC-SVG-20010904/DTD/svg10.dtd">
<svg version="1.0" xmlns="http://www.w3.org/2000/svg"
 width="329.000000pt" height="329.000000pt" viewBox="0 0 329.000000 329.000000"
 preserveAspectRatio="xMidYMid meet">

<g transform="translate(0.000000,329.000000) scale(0.100000,-0.100000)"
fill="#000000" stroke="none">
<path d="M1547 2920 c-163 -41 -209 -168 -91 -250 49 -33 43 -60 -16 -75 -25
-7 -54 -16 -65 -22 -11 -6 -51 -14 -90 -18 -478 -46 -782 -164 -820 -316 -6
-24 -12 -27 -69 -31 -110 -9 -199 -63 -251 -153 -113 -197 17 -435 252 -461
l63 -6 0 -352 c0 -396 6 -442 66 -565 70 -141 221 -260 378 -296 58 -14 163
-15 769 -13 l702 3 65 23 c141 51 261 157 326 287 58 118 64 167 64 561 l0
352 65 7 c78 8 172 52 211 98 36 43 71 121 79 179 5 35 2 65 -14 116 -38 127
-141 209 -275 219 -59 5 -65 8 -71 32 -37 150 -318 262 -780 311 -60 7 -119
17 -130 23 -11 6 -40 15 -65 22 -59 15 -65 42 -16 75 142 98 46 247 -166 256
-46 2 -100 -1 -121 -6z m-313 -520 c12 -75 94 -138 226 -171 34 -9 107 -14
190 -14 122 0 143 3 224 29 111 37 171 87 182 154 8 50 3 50 169 22 200 -33
336 -76 432 -136 92 -58 82 -106 -34 -166 -128 -68 -369 -124 -638 -148 -143
-13 -539 -13 -685 0 -351 32 -671 127 -720 213 -13 24 -13 30 0 54 26 46 140
102 295 144 86 23 270 57 321 58 29 1 32 -2 38 -39z m-774 -500 c0 -49 0 -50
-32 -50 -33 0 -68 24 -68 47 0 35 21 53 60 53 l40 0 0 -50z m2464 18 c13 -37
-14 -68 -61 -68 l-33 0 0 51 0 50 42 -3 c36 -3 44 -7 52 -30z"/>
</g>
</svg>
